<?xml version="1.0" standalone="no"?>
<!DOCTYPE svg PUBLIC "-//W3C//DTD SVG 20010904//EN"
 "http://www.w3.org/TR/2001/REC-SVG-20010904/DTD/svg10.dtd">
<svg version="1.0" xmlns="http://www.w3.org/2000/svg"
 width="1024.000000pt" height="1024.000000pt" viewBox="0 0 1024.000000 1024.000000"
 preserveAspectRatio="xMidYMid meet">
<metadata>
Created by potrace 1.14, written by Peter Selinger 2001-2017
</metadata>
<g transform="translate(0.000000,1024.000000) scale(0.100000,-0.100000)"
fill="#000000" stroke="none">
<path d="M5149 8825 c-2 -2 -40 -6 -84 -9 -44 -4 -91 -8 -105 -10 -14 -3 -47
-7 -75 -11 -61 -7 -111 -15 -139 -21 -11 -3 -32 -7 -46 -9 -91 -14 -362 -83
-432 -110 -21 -8 -38 -13 -38 -10 0 3 -14 -2 -31 -11 -17 -9 -41 -18 -54 -20
-12 -2 -42 -12 -66 -23 -42 -18 -79 -32 -89 -36 -40 -14 -145 -63 -275 -128
-55 -28 -110 -55 -122 -61 -13 -6 -23 -14 -23 -18 0 -5 -4 -8 -10 -8 -12 0
-222 -128 -230 -139 -3 -5 -14 -13 -25 -19 -19 -10 -134 -93 -165 -119 -8 -7
-44 -36 -80 -65 -111 -90 -121 -99 -260 -238 -155 -156 -174 -177 -288 -319
-89 -111 -272 -380 -272 -398 0 -6 -4 -13 -8 -15 -15 -6 -162 -286 -162 -308
0 -6 -4 -10 -10 -10 -5 0 -10 -6 -10 -14 0 -8 -11 -37 -25 -64 -14 -28 -25
-54 -25 -59 0 -5 -8 -27 -19 -49 -21 -45 -101 -268 -107 -301 -2 -12 -8 -33
-13 -45 -5 -13 -18 -63 -30 -113 -12 -49 -25 -101 -28 -115 -4 -14 -8 -32 -9
-40 -1 -8 -5 -26 -8 -40 -3 -14 -8 -38 -11 -55 -3 -16 -7 -43 -11 -60 -3 -16
-7 -43 -8 -60 -4 -33 -16 -118 -21 -152 -21 -134 -22 -577 -1 -743 3 -19 8
-60 11 -90 6 -54 14 -100 20 -130 2 -8 4 -20 4 -26 1 -9 88 -12 322 -12 l321
1 -5 36 c-3 20 -8 47 -11 61 -11 58 -27 170 -33 230 -9 89 -9 522 0 590 4 30
12 91 18 135 6 44 14 98 19 120 11 49 19 91 26 127 3 14 14 57 25 95 11 37 22
77 24 87 10 43 48 152 59 165 6 8 10 16 8 18 -4 4 31 100 55 153 136 301 300
566 468 756 11 13 30 36 42 52 26 34 191 200 254 256 106 94 316 256 333 256
3 0 14 7 24 16 55 50 445 252 475 246 4 -1 7 2 7 7 0 5 10 11 23 14 12 3 60
19 107 37 86 32 99 36 112 39 5 1 25 8 45 16 21 8 49 17 63 19 14 3 25 5 25 6
0 2 11 5 110 29 44 11 96 22 115 25 19 3 46 8 60 11 13 2 42 7 65 10 22 4 51
8 65 10 169 26 648 26 784 -1 12 -2 41 -7 66 -10 25 -3 63 -10 85 -14 22 -5
56 -12 75 -15 89 -15 393 -103 432 -125 10 -6 22 -10 27 -10 5 0 26 -8 47 -17
22 -9 41 -17 44 -18 39 -12 284 -134 345 -171 22 -14 48 -27 58 -31 9 -3 17
-9 17 -14 0 -5 5 -9 10 -9 13 0 164 -100 168 -112 2 -4 8 -8 14 -8 5 0 15 -6
22 -12 7 -7 25 -22 40 -33 114 -82 270 -224 391 -356 81 -88 116 -129 111
-129 -3 0 5 -10 17 -23 44 -46 76 -90 165 -223 140 -213 262 -459 336 -679 15
-44 31 -88 36 -97 6 -10 10 -27 10 -39 0 -11 4 -28 9 -38 6 -10 12 -31 15 -47
2 -16 5 -29 6 -29 2 0 4 -9 6 -20 2 -11 8 -40 15 -65 6 -25 13 -54 14 -65 3
-20 10 -56 20 -105 6 -31 15 -101 20 -160 2 -25 7 -70 10 -100 7 -60 7 -397 1
-445 -2 -16 -7 -64 -10 -105 -7 -77 -14 -124 -21 -150 -2 -8 -7 -35 -10 -60
-4 -25 -13 -72 -20 -105 -8 -33 -16 -71 -19 -85 -33 -161 -141 -451 -241 -650
-82 -163 -231 -400 -292 -465 -7 -8 -13 -18 -13 -23 0 -6 -3 -12 -7 -14 -5 -1
-28 -28 -53 -58 -90 -111 -272 -297 -337 -347 -32 -25 -33 -25 -60 -6 -16 10
-37 24 -48 30 -23 14 -319 160 -350 173 -11 4 -40 17 -65 28 -25 11 -65 27
-90 35 -25 9 -85 30 -135 47 -49 18 -99 34 -110 36 -11 2 -88 21 -171 43 -83
21 -168 41 -190 45 -21 3 -50 8 -64 11 -14 3 -38 7 -55 9 -16 2 -50 7 -75 10
-194 28 -606 39 -790 22 -128 -12 -259 -29 -320 -41 -8 -2 -23 -4 -33 -4 -10
-1 -16 -5 -13 -9 2 -4 -11 -6 -30 -4 -19 2 -34 0 -34 -4 0 -5 -10 -9 -22 -10
-13 0 -36 -4 -53 -8 -16 -4 -43 -9 -60 -12 -16 -3 -34 -9 -40 -14 -5 -4 -28
-10 -50 -14 -22 -3 -64 -14 -93 -25 -29 -11 -56 -20 -60 -20 -23 -3 -211 -72
-287 -105 -16 -8 -59 -26 -95 -42 -94 -41 -314 -155 -318 -165 -2 -5 -8 -9
-13 -9 -13 0 -171 -101 -181 -115 -4 -5 -8 -7 -8 -2 0 4 -42 -23 -92 -60 -119
-86 -116 -84 -144 -111 -14 -12 -28 -22 -32 -22 -4 0 -15 -8 -23 -17 -9 -10
-34 -32 -55 -50 -21 -17 -61 -52 -88 -77 l-50 -45 30 -26 c58 -52 309 -238
326 -243 10 -2 18 -8 18 -12 0 -4 21 -19 48 -34 26 -15 68 -40 94 -56 193
-118 431 -230 667 -311 47 -16 93 -32 101 -36 8 -3 17 -7 20 -8 3 -1 12 -4 20
-7 69 -27 277 -79 390 -98 30 -6 66 -12 80 -15 13 -2 42 -7 65 -10 22 -4 54
-8 70 -11 17 -3 48 -7 70 -9 22 -2 81 -7 130 -11 133 -12 620 -7 620 6 0 1 20
3 45 5 44 4 131 14 160 20 8 1 33 6 55 9 125 20 413 89 446 107 11 5 19 7 19
3 0 -3 7 -1 15 6 8 7 15 10 15 6 0 -5 118 33 165 54 11 5 66 27 122 49 153 61
339 154 363 182 3 3 38 26 78 50 40 24 84 51 97 59 13 8 53 33 89 54 36 22 74
47 84 56 10 10 28 22 39 28 20 11 217 166 258 203 11 10 36 32 55 50 126 113
321 318 376 395 10 15 29 38 41 51 12 12 43 53 70 90 26 38 50 70 53 73 4 3
48 73 99 155 51 83 96 157 101 165 32 51 164 333 200 425 23 61 47 118 52 129
5 10 11 26 14 35 6 27 75 255 81 271 3 8 7 20 7 25 1 6 5 24 9 40 4 17 9 39
11 50 3 11 11 54 20 95 9 41 18 93 21 115 4 22 8 47 10 55 2 8 7 42 11 75 3
33 8 74 10 90 23 190 23 656 0 781 -2 10 -7 51 -12 89 -4 39 -8 72 -9 75 -1 3
-5 28 -10 55 -8 55 -11 68 -25 135 -6 25 -13 59 -16 75 -14 68 -73 274 -85
296 -7 13 -12 25 -11 27 4 4 -11 57 -19 67 -4 6 -7 12 -8 15 0 16 -44 133 -77
208 -13 29 -24 55 -24 57 0 5 -107 219 -139 280 -9 17 -38 66 -64 110 -27 44
-54 89 -60 100 -7 11 -14 22 -17 25 -3 3 -23 32 -45 65 -22 33 -43 62 -47 63
-5 2 -8 8 -8 14 0 5 -6 16 -12 23 -7 8 -17 20 -23 27 -45 58 -135 169 -160
197 -162 184 -363 376 -507 483 -29 22 -54 44 -56 49 -2 5 -9 9 -15 9 -6 0
-20 8 -31 19 -26 23 -213 151 -221 151 -4 0 -25 13 -48 28 -55 37 -154 91
-292 159 -60 29 -118 58 -129 64 -10 6 -26 12 -35 14 -9 2 -50 18 -91 35 -117
49 -314 114 -440 146 -17 4 -144 33 -175 40 -83 18 -264 45 -390 59 -57 7
-571 16 -576 10z m611 -6099 c25 -3 61 -8 80 -11 19 -3 55 -7 80 -10 25 -2 56
-7 70 -10 25 -5 50 -10 105 -21 17 -3 35 -7 40 -8 6 -1 26 -6 45 -10 19 -4 55
-14 80 -21 25 -8 56 -16 70 -19 46 -9 345 -120 365 -136 6 -4 23 -12 40 -17
29 -9 29 -10 -46 -46 -85 -40 -231 -101 -299 -123 -25 -8 -54 -19 -65 -24 -49
-20 -308 -85 -378 -94 -18 -3 -32 -5 -32 -6 0 -3 -40 -9 -95 -15 -30 -4 -62
-8 -70 -10 -64 -17 -444 -24 -585 -12 -109 10 -212 22 -265 31 -134 25 -193
37 -200 41 -4 3 -25 7 -46 11 -22 3 -43 9 -49 12 -5 4 -14 7 -20 7 -5 0 -37 9
-70 19 -33 10 -64 19 -70 21 -11 2 -37 12 -70 25 -11 4 -69 27 -130 50 -60 24
-113 46 -118 50 -7 6 79 59 100 62 5 1 35 13 68 28 33 14 76 32 95 39 19 7 44
17 55 21 72 29 236 81 300 96 11 2 29 6 40 9 65 15 216 46 250 51 22 3 51 7
65 9 14 2 63 7 110 11 47 3 86 7 88 9 5 4 417 -3 462 -9z"/>
<path d="M5239 7396 c-2 -2 -33 -6 -69 -9 -36 -3 -86 -10 -113 -16 -26 -6 -63
-14 -83 -17 -20 -3 -53 -12 -75 -19 -22 -8 -43 -15 -47 -16 -55 -12 -164 -55
-267 -104 -104 -50 -294 -168 -342 -214 -12 -12 -25 -21 -28 -21 -5 0 -6 -1
-116 -106 -79 -76 -92 -90 -154 -169 -21 -27 -46 -56 -54 -62 -8 -7 -11 -13
-7 -13 4 0 -6 -17 -22 -37 -16 -21 -41 -60 -56 -87 -15 -26 -33 -55 -42 -63
-8 -8 -12 -18 -9 -23 3 -4 -2 -13 -10 -20 -8 -7 -15 -17 -15 -22 0 -5 -13 -37
-29 -71 -16 -34 -32 -73 -36 -87 -4 -14 -11 -29 -15 -35 -4 -5 -11 -23 -15
-40 -12 -44 -12 -45 -15 -50 -1 -3 -4 -9 -5 -15 -1 -5 -3 -11 -5 -12 -2 -4 -8
-29 -29 -118 -13 -60 -22 -108 -26 -145 -8 -72 -18 -204 -18 -250 l-1 -50 274
0 c207 0 274 3 273 12 -21 105 48 469 103 548 8 11 14 27 14 36 0 10 3 19 8
21 4 2 18 26 32 53 13 28 27 52 30 55 3 3 18 25 34 50 80 125 245 289 362 360
21 13 42 29 46 34 4 6 8 7 8 2 0 -5 8 -2 18 7 19 17 174 91 217 103 6 1 24 7
42 12 17 6 34 8 37 4 3 -3 6 1 6 8 0 7 3 11 6 7 3 -3 18 -1 32 4 25 10 40 13
142 26 104 14 292 9 420 -11 150 -24 354 -114 510 -224 67 -48 215 -191 260
-250 14 -19 31 -40 38 -47 6 -8 12 -16 12 -19 0 -3 12 -22 26 -43 48 -70 132
-253 150 -323 23 -96 33 -142 40 -180 10 -61 13 -324 3 -374 -4 -23 -10 -54
-13 -71 -17 -101 -68 -245 -122 -351 -26 -49 -49 -91 -53 -94 -3 -3 -10 -12
-16 -21 -47 -76 -82 -117 -169 -205 -56 -55 -131 -122 -169 -148 -63 -44 -212
-125 -282 -153 -51 -20 -198 -60 -245 -67 -25 -3 -56 -8 -70 -11 -14 -3 -852
-5 -1862 -5 -1753 0 -1837 0 -1834 -17 7 -36 28 -110 59 -208 17 -55 32 -102
32 -105 1 -3 5 -14 10 -25 4 -11 21 -56 38 -100 16 -44 34 -82 38 -85 10 -7
3524 -3 3559 3 14 3 50 8 80 12 67 7 314 71 354 91 16 8 33 14 38 14 15 0 174
77 250 121 74 42 218 142 273 189 183 156 364 388 464 595 45 93 49 103 76
169 20 52 72 231 79 276 3 19 8 46 11 60 23 112 34 389 20 485 -3 17 -7 54
-11 84 -3 30 -7 62 -10 70 -2 9 -10 47 -19 86 -17 77 -51 191 -66 217 -5 10
-9 22 -9 28 0 9 -32 85 -68 160 -25 53 -119 210 -137 229 -8 10 -15 22 -15 28
0 6 -3 13 -8 15 -4 2 -23 23 -42 48 -135 174 -345 359 -523 459 -20 12 -52 30
-70 40 -19 10 -67 33 -108 50 -41 18 -86 39 -101 47 -16 8 -28 13 -28 10 0 -3
-17 1 -37 9 -41 15 -136 43 -174 50 -13 3 -35 7 -49 10 -33 6 -88 16 -125 22
-37 5 -381 14 -386 9z"/>
<path d="M5297 6384 c-2 -2 -21 -6 -43 -10 -21 -3 -46 -10 -55 -15 -9 -4 -19
-6 -21 -3 -14 13 -227 -93 -291 -145 -120 -98 -267 -306 -267 -377 0 -8 -4
-14 -8 -14 -5 0 -9 -6 -9 -12 -1 -7 -7 -40 -16 -74 -17 -70 -20 -251 -6 -315
6 -24 12 -51 14 -61 7 -35 54 -141 86 -195 38 -62 182 -213 205 -213 8 0 14
-4 14 -8 0 -11 127 -74 195 -97 94 -31 280 -39 390 -16 313 65 559 299 640
611 27 101 32 275 10 346 -7 24 -11 44 -9 44 13 0 -75 197 -101 226 -5 6 -17
22 -25 35 -18 27 -119 129 -146 146 -10 7 -37 24 -59 39 -44 29 -165 80 -210
88 -17 3 -41 8 -55 12 -27 6 -228 13 -233 8z"/>
</g>
</svg>
