<?xml version="1.0" encoding="UTF-8"?>
<svg id="Guides" xmlns="http://www.w3.org/2000/svg" viewBox="0 0 1024 768">
  <defs>
    <style>
      .cls-1 {
        fill: #fff;
      }

      .cls-2 {
        fill: #725bcf;
      }
    </style>
  </defs>
  <path class="cls-1" d="m723.21,340.72c0,1.74-.02,3.48-.08,5.22-2.77,99.54-84.7,179.67-184.97,179.67-1.63,0-3.33,0-4.96-.07v.07H201.97c-7.42-17.65-13.47-35.86-18.08-54.45h349.31v.15c1.63.12,3.25.12,4.96.12,72.18,0,130.9-58.6,130.9-130.71,0-52.18-30.68-97.32-74.95-118.34h-.01c-.7-.34-1.41-.66-2.12-.98-.76-.35-1.53-.69-2.3-1.01-15.64-6.63-32.82-10.3-50.84-10.3-72.19,0-130.91,58.71-130.91,130.9,0,1.7,0,3.33.16,4.95h-54.23c-.07-1.62-.07-3.33-.07-4.95,0-100.14,79.94-181.97,179.41-184.96,1.87-.06,3.75-.09,5.64-.09,25.43,0,49.67,5.17,71.74,14.49.72.31,1.44.62,2.15.93.51.23,1.01.45,1.51.68,64.19,29.06,108.97,93.72,108.97,168.68Z"/>
  <ellipse class="cls-1" cx="535.99" cy="336.03" rx="80.76" ry="77.12" transform="translate(-87.29 444.32) rotate(-41.94)"/>
  <g>
    <path class="cls-2" d="m904.33,363.14s0-.08-.01-.12c0-.05,0-.09-.01-.14-.08-1.79-.17-3.58-.28-5.37-.1-1.68-.21-3.36-.34-5.05-.2-2.71-.43-5.42-.69-8.13-.03-.29-.06-.58-.09-.87-.28-2.81-.59-5.62-.93-8.43-.34-2.76-.71-5.51-1.11-8.26-.9-6.13-1.95-12.25-3.17-18.36-.44-2.16-.9-4.33-1.37-6.51l-.24-1.07-.34-1.53c-.34-1.53-.69-3.07-1.05-4.6C848.38,100.14,653.55-22,457.92,21.96c-191.18,42.92-313.92,228.83-280.9,419.81h64.41c-28.17-134.27,37.71-267.35,153.45-329.46.82,0,1.64-.22,2.39-.62.02-.04.04-.04.06-.04.94-.5,1.85-.96,2.79-1.43,65.7-33.62,138.15-40.89,205.14-25.62,83.58,19.01,158.65,73.07,201.48,154.75,66.76,127.26,33.74,280.9-71.03,370.8h-.01c-8.07-4.85-16.34-9.37-24.8-13.59-39.11-19.52-82.36-32.28-128.41-36.66-25.79-2.46-51.21-2.15-75.99.68l.63.81h0c-4.71.52-9.42,1.14-14.14,1.86-8.61,1.29-17.23,2.91-25.86,4.85-27.31,6.13-53.21,15.19-77.46,26.76-.01,0-.01,0-.02,0h-.01c-.28.13-.56.26-.83.4-2,.98-3.99,1.98-5.98,2.99h-.01c-11.18,5.77-22.14,12.15-32.85,19.18-7.24,4.73-14.37,9.74-21.36,15.07-10.57,8.02-20.58,16.54-30.04,25.46,13.15,11.35,27.15,21.77,41.93,31.19,3.69,2.36,7.42,4.65,11.19,6.85,23.47,13.86,48.76,25.2,75.61,33.62l.13.58c18.92,6.09,38.38,10.63,58.24,13.55,43.22,6.41,88.3,5.11,133.43-5.03,29.89-6.71,58.11-16.94,84.32-30.12,1.03-.76,42.36-26.63,42.63-26.63.38-.25.76-.51,1.13-.77,3.51-2.44,6.97-4.93,10.37-7.47h0c1.47-1.1,2.93-2.21,4.38-3.33,5.81-4.46,11.46-9.09,16.95-13.87,4.11-3.58,8.12-7.24,12.05-10.98,2.61-2.48,5.19-5.01,7.72-7.58,2.37-2.4,4.71-4.83,7.01-7.28h0c.78-.83,1.54-1.65,2.29-2.47h0c1.53-1.66,3.03-3.32,4.51-4.99h0c.75-.85,1.48-1.68,2.21-2.53.74-.84,1.47-1.69,2.19-2.54,2.18-2.55,4.31-5.13,6.41-7.73h0c.7-.88,1.39-1.75,2.08-2.62s1.38-1.75,2.06-2.63c.68-.88,1.36-1.76,2.04-2.64h0c.67-.9,1.34-1.78,2.01-2.67.66-.89,1.32-1.78,1.98-2.68,2.1-2.87,4.16-5.76,6.18-8.68,1-1.46,2-2.93,2.98-4.4h0c.99-1.48,1.97-2.96,2.93-4.45,3.85-5.95,7.52-12,11.01-18.14,1.75-3.08,3.45-6.17,5.1-9.29,9.1-17.15,16.82-34.97,23.1-53.28,1.14-3.32,2.23-6.66,3.28-10.02,1.57-5.04,3.03-10.12,4.38-15.22.68-2.55,1.32-5.11,1.94-7.67.62-2.57,1.22-5.14,1.78-7.72.57-2.58,1.11-5.17,1.62-7.76.51-2.59.99-5.19,1.45-7.79.23-1.3.45-2.6.66-3.91.86-5.21,1.6-10.45,2.23-15.71.31-2.62.6-5.26.86-7.89.13-1.32.25-2.64.37-3.96h0c.11-1.33.22-2.64.32-3.96h0c.2-2.64.38-5.28.52-7.92v-.03c.14-2.63.26-5.27.35-7.91v-.04c.31-9.41.25-18.86-.17-28.31Zm-229.13,288.19c-37.94,19.13-78.09,29.5-118.12,31.85-28.8,1.7-57.54-.76-85.33-7.1-.41-.09-.79-.19-1.2-.28-20.35-4.71-40.17-11.51-59.15-20.28-.17.06-.35.16-.52.26l-.04-.18c-.51.24-1.01.5-1.52.76.36-.59.6-1.23.71-1.9h0c.53.27,1.04.52,1.58.75,5.81-2.93,11.68-5.64,17.59-8.14.03-.01.05-.02.08-.03.72-.33,1.45-.63,2.2-.94,18.46-7.9,37.65-13.88,57.17-17.96.41-.07.82-.16,1.23-.23,7.75-1.58,15.55-2.87,23.41-3.85.34-.05.68-.08,1-.11,56.79-6.3,112.09,3.69,160.91,26.45.31.13.61.29.93.45-.31.17-.62.33-.94.48Zm1.68-.85h.01s.02-.01.02-.01c-.01.01-.02.01-.03.01Zm31.44,54.26c-.1.06-.21.1-.32.15.11-.05.22-.11.32-.16h0Z"/>
    <path class="cls-2" d="m676.89,650.47h.02c-.07.12-.14.24-.2.36h-.01c-.03.07-.07.15-.1.23h0c-.04.07-.06.13-.09.2l.18.75c-.13-.06-.25-.12-.38-.17-.03-.02-.06-.03-.09-.05.07-.21.16-.42.27-.62h0s.04-.09.06-.13h.01c.02-.07.08-.13.1-.19.06-.13.13-.25.22-.36h0s0-.01.01-.02Z"/>
    <path class="cls-2" d="m888.02,488.94c-1.04,3.35-2.14,6.69-3.28,10.02,1.14-3.32,2.23-6.66,3.28-10.02Z"/>
    <path class="cls-2" d="m897.74,450.57c.51-2.59.99-5.19,1.45-7.79-.45,2.6-.94,5.2-1.45,7.79Z"/>
    <path class="cls-2" d="m899.85,438.87c.86-5.21,1.6-10.45,2.23-15.71-.62,5.26-1.37,10.5-2.23,15.71Z"/>
    <path class="cls-2" d="m902.94,415.27c-.25,2.63-.54,5.27-.86,7.89.31-2.62.6-5.26.86-7.89Z"/>
    <path class="cls-2" d="m902.91,343.46c-.28-2.81-.59-5.62-.93-8.43.35,2.81.66,5.62.93,8.43Z"/>
    <path class="cls-2" d="m903.63,407.34c.2-2.63.38-5.27.52-7.91-.14,2.64-.31,5.27-.52,7.91Z"/>
    <path class="cls-2" d="m904.15,399.4c.14-2.63.26-5.27.35-7.91-.08,2.64-.2,5.27-.35,7.91Z"/>
    <path class="cls-2" d="m904.69,377.31c-.03-4.72-.15-9.44-.36-14.17.21,4.73.33,9.45.36,14.17Z"/>
    <path class="cls-2" d="m904.69,377.31c.03,4.72-.03,9.43-.19,14.14.15-4.7.22-9.42.19-14.14Z"/>
    <path class="cls-2" d="m676.6,651.07c-.04.06-.06.12-.09.19l.18.75c-.13-.06-.25-.12-.38-.17-.03-.02-.06-.03-.09-.05h-.01c.07-.21.16-.42.28-.62h0s.04-.09.06-.13h.01c.02-.08.07-.12.09-.19h.01s.03-.01.04-.02c-.03.07-.07.15-.1.23h0Z"/>
    <path class="cls-2" d="m708,704.89c.11-.05.22-.11.32-.16h0c-.1.07-.21.11-.32.16Z"/>
    <path class="cls-2" d="m761.93,670.41c-1.45,1.13-2.91,2.23-4.38,3.33h0c1.47-1.1,2.93-2.21,4.38-3.33Z"/>
    <path class="cls-2" d="m790.93,645.56c-3.93,3.75-7.94,7.41-12.05,10.98,4.11-3.58,8.12-7.24,12.05-10.98Z"/>
    <path class="cls-2" d="m839.62,588.52c-2.01,2.92-4.07,5.81-6.18,8.68,2.1-2.87,4.16-5.76,6.18-8.68Z"/>
    <path class="cls-2" d="m896.33,301.9l-.24-1.07s.02.07.03.1l.21.97Z"/>
    <path class="cls-2" d="m411.18,655.42c.07.04.15.07.22.1-.17.06-.35.16-.52.26l-.04-.18-.08-.37c.14.06.28.13.42.19Z"/>
    <path class="cls-2" d="m708,704.89c.11-.05.22-.11.32-.16h0c-.1.07-.21.11-.32.16Z"/>
    <path class="cls-2" d="m506.5,560.58l.63.81h0c-4.71.52-9.42,1.14-14.14,1.86.01-.31,0-.61-.01-.91.26-.04.5-.07.76-.11,1.55-.24,3.13-.47,4.7-.68,2.67-.35,5.37-.68,8.06-.97Z"/>
    <path class="cls-2" d="m676.89,650.47h.02c-.07.12-.14.24-.2.36h-.01c-.03.07-.07.15-.1.23-.03-.02-.03-.03-.04-.03h-.01s-.07-.02-.1-.04c-.1-.05-.2-.1-.3-.14.08-.03.16-.07.24-.12.16-.08.33-.16.49-.24h0s0-.01.01-.02Z"/>
    <path class="cls-2" d="m389.31,595.02c.12-.04.21-.11.33-.15-.28.13-.56.26-.83.4.17-.09.33-.17.5-.25Z"/>
    <path class="cls-2" d="m411.62,655.21c5.81-2.93,11.68-5.64,17.59-8.14-5.87,2.53-11.68,5.28-17.38,8.21-.14.08-.29.15-.43.24-.17.06-.35.16-.52.26l-.04-.18c-.51.24-1.01.5-1.52.76.36-.59.6-1.23.71-1.9h.01c.53.27,1.04.52,1.58.75Z"/>
    <path class="cls-2" d="m507.13,561.39h0c-4.71.52-9.42,1.14-14.14,1.86-8.61,1.29-17.23,2.91-25.86,4.85-27.31,6.13-53.21,15.19-77.46,26.76.21-.11.45-.22.66-.33,18.71-9.11,37.95-16.45,57.53-22.13,14.88-4.33,29.95-7.69,45.12-10.06.26-.04.5-.07.76-.11,1.55-.24,3.13-.47,4.7-.68,2.66-.41,5.33-.76,8-1.06l.06.09.63.81Z"/>
  </g>
</svg>