<svg width="17" height="19" viewBox="0 0 17 19" fill="none" xmlns="http://www.w3.org/2000/svg">
<g filter="url(#filter0_d_2_184)">
<path d="M6.3471 10.2306L6.49515 10.201C6.68538 10.163 6.78049 10.1439 6.86075 10.1129C7.18825 9.98621 7.42531 9.69704 7.4853 9.35106C7.5 9.26628 7.5 9.16928 7.5 8.97528V8.00003H6.12623C6.009 8.00003 5.95039 8.00003 5.90102 8.00494C5.42701 8.05209 5.05206 8.42704 5.00491 8.90106C5 8.95042 5 9.00903 5 9.12626C5 9.26614 5 9.33608 5.00622 9.39159C5.06661 9.93046 5.54545 10.323 6.08569 10.2765C6.14135 10.2718 6.20993 10.258 6.3471 10.2306Z" fill="#7E869E" fill-opacity="0.25"/>
<path d="M11.3471 9.23061L11.4951 9.201C11.6854 9.16296 11.7805 9.14393 11.8607 9.11289C12.1883 8.98621 12.4253 8.69704 12.4853 8.35106C12.5 8.26628 12.5 8.16928 12.5 7.97528V7.00003H11.1262C11.009 7.00003 10.9504 7.00003 10.901 7.00494C10.427 7.05209 10.0521 7.42704 10.0049 7.90106C10 7.95042 10 8.00903 10 8.12626C10 8.26614 10 8.33608 10.0062 8.39159C10.0666 8.93046 10.5455 9.32301 11.0857 9.27655C11.1413 9.27176 11.2099 9.25804 11.3471 9.23061Z" fill="#7E869E" fill-opacity="0.25"/>
<path d="M6.3471 10.2306L6.49515 10.201C6.68538 10.163 6.78049 10.1439 6.86075 10.1129C7.18825 9.98621 7.42531 9.69704 7.4853 9.35106C7.5 9.26628 7.5 9.16928 7.5 8.97528V8.00003H6.12623C6.009 8.00003 5.95039 8.00003 5.90102 8.00494C5.42701 8.05209 5.05206 8.42704 5.00491 8.90106C5 8.95042 5 9.00903 5 9.12626C5 9.26614 5 9.33608 5.00622 9.39159C5.06661 9.93046 5.54545 10.323 6.08569 10.2765C6.14135 10.2718 6.20993 10.258 6.3471 10.2306Z" stroke="white" stroke-width="0.6"/>
<path d="M11.3471 9.23061L11.4951 9.201C11.6854 9.16296 11.7805 9.14393 11.8607 9.11289C12.1883 8.98621 12.4253 8.69704 12.4853 8.35106C12.5 8.26628 12.5 8.16928 12.5 7.97528V7.00003H11.1262C11.009 7.00003 10.9504 7.00003 10.901 7.00494C10.427 7.05209 10.0521 7.42704 10.0049 7.90106C10 7.95042 10 8.00903 10 8.12626C10 8.26614 10 8.33608 10.0062 8.39159C10.0666 8.93046 10.5455 9.32301 11.0857 9.27655C11.1413 9.27176 11.2099 9.25804 11.3471 9.23061Z" stroke="white" stroke-width="0.6"/>
<path d="M7.5 7.99997H6.12623C6.009 7.99997 5.95039 7.99997 5.90102 8.00488C5.42701 8.05203 5.05206 8.42698 5.00491 8.90099C5 8.95036 5 9.00897 5 9.1262V9.1262C5 9.26608 5 9.33602 5.00622 9.39153C5.06661 9.93039 5.54545 10.323 6.08569 10.2765C6.14135 10.2717 6.20993 10.258 6.3471 10.2306L6.49515 10.2009C6.68538 10.1629 6.78049 10.1439 6.86075 10.1128C7.18825 9.98615 7.42531 9.69698 7.4853 9.351C7.5 9.26621 7.5 9.16921 7.5 8.97522V4.63958C7.5 3.8547 7.5 3.46226 7.72666 3.18578C7.95332 2.90931 8.33813 2.83234 9.10777 2.67842L10.1078 2.47842C11.2146 2.25705 11.768 2.14637 12.134 2.44643C12.5 2.74649 12.5 3.31085 12.5 4.43958V4.49997M12.5 6.99997V7.97521C12.5 8.16921 12.5 8.26621 12.4853 8.351C12.4253 8.69698 12.1883 8.98615 11.8607 9.11283C11.7805 9.14387 11.6854 9.16289 11.4951 9.20094L11.3471 9.23055C11.2099 9.25798 11.1413 9.2717 11.0857 9.27649C10.5455 9.32295 10.0666 8.93039 10.0062 8.39153C10 8.33602 10 8.26608 10 8.1262V8.1262C10 8.00897 10 7.95036 10.0049 7.90099C10.0521 7.42698 10.427 7.05203 10.901 7.00488C10.9504 6.99997 11.009 6.99997 11.1262 6.99997H12.5ZM12.5 6.99997V4.49997M12.5 4.49997L7.5 5.49997" stroke="white" stroke-width="0.6"/>
</g>
<defs>
<filter id="filter0_d_2_184" x="-1" y="0" width="20" height="20" filterUnits="userSpaceOnUse" color-interpolation-filters="sRGB">
<feFlood flood-opacity="0" result="BackgroundImageFix"/>
<feColorMatrix in="SourceAlpha" type="matrix" values="0 0 0 0 0 0 0 0 0 0 0 0 0 0 0 0 0 0 127 0" result="hardAlpha"/>
<feOffset dy="4"/>
<feGaussianBlur stdDeviation="2"/>
<feComposite in2="hardAlpha" operator="out"/>
<feColorMatrix type="matrix" values="0 0 0 0 0 0 0 0 0 0 0 0 0 0 0 0 0 0 0.25 0"/>
<feBlend mode="normal" in2="BackgroundImageFix" result="effect1_dropShadow_2_184"/>
<feBlend mode="normal" in="SourceGraphic" in2="effect1_dropShadow_2_184" result="shape"/>
</filter>
</defs>
</svg>
