<svg width="24" height="24" viewBox="0 0 24 24" fill="none" xmlns="http://www.w3.org/2000/svg">
<mask id="path-1-outside-1_2_408" maskUnits="userSpaceOnUse" x="2" y="2" width="20" height="12" fill="black">
<rect fill="currentColor" x="2" y="2" width="20" height="12"/>
<path fill-rule="evenodd" clip-rule="evenodd" d="M6 13H12H18C19.6569 13 21 11.6569 21 10C21 8.34315 19.6569 7 18 7C17.7205 7 17.5807 7 17.483 6.98034C17.185 6.92036 17.0435 6.82876 16.8667 6.58143C16.8088 6.50036 16.7272 6.31851 16.5639 5.95481C15.7822 4.21307 14.0328 3 12 3C9.96722 3 8.21776 4.21308 7.43606 5.95481C7.27282 6.31851 7.19121 6.50036 7.13328 6.58143C6.95652 6.82876 6.81502 6.92036 6.51699 6.98034C6.41931 7 6.27954 7 6 7C4.34315 7 3 8.34315 3 10C3 11.6569 4.34315 13 6 13Z"/>
</mask>
<path fill-rule="evenodd" clip-rule="evenodd" d="M6 13H12H18C19.6569 13 21 11.6569 21 10C21 8.34315 19.6569 7 18 7C17.7205 7 17.5807 7 17.483 6.98034C17.185 6.92036 17.0435 6.82876 16.8667 6.58143C16.8088 6.50036 16.7272 6.31851 16.5639 5.95481C15.7822 4.21307 14.0328 3 12 3C9.96722 3 8.21776 4.21308 7.43606 5.95481C7.27282 6.31851 7.19121 6.50036 7.13328 6.58143C6.95652 6.82876 6.81502 6.92036 6.51699 6.98034C6.41931 7 6.27954 7 6 7C4.34315 7 3 8.34315 3 10C3 11.6569 4.34315 13 6 13Z" fill="currentColor" fill-opacity="0.25"/>
<path d="M7.43606 5.95481L6.88866 5.70913L7.43606 5.95481ZM7.13328 6.58143L6.64512 6.23257L7.13328 6.58143ZM6.51699 6.98034L6.3986 6.39214L6.51699 6.98034ZM17.483 6.98034L17.3646 7.56854L17.483 6.98034ZM16.5639 5.95481L17.1113 5.70913L16.5639 5.95481ZM16.8667 6.58143L17.3549 6.23257L16.8667 6.58143ZM12 12.4H6V13.6H12V12.4ZM18 12.4H12V13.6H18V12.4ZM20.4 10C20.4 11.3255 19.3255 12.4 18 12.4V13.6C19.9882 13.6 21.6 11.9882 21.6 10H20.4ZM18 7.6C19.3255 7.6 20.4 8.67452 20.4 10H21.6C21.6 8.01178 19.9882 6.4 18 6.4V7.6ZM17.1113 5.70913C16.2364 3.75969 14.2776 2.4 12 2.4V3.6C13.7879 3.6 15.3281 4.66646 16.0165 6.20048L17.1113 5.70913ZM12 2.4C9.72236 2.4 7.76359 3.75969 6.88866 5.70913L7.98345 6.20048C8.67194 4.66646 10.2121 3.6 12 3.6V2.4ZM6 6.4C4.01177 6.4 2.4 8.01178 2.4 10H3.6C3.6 8.67452 4.67452 7.6 6 7.6V6.4ZM2.4 10C2.4 11.9882 4.01177 13.6 6 13.6V12.4C4.67452 12.4 3.6 11.3255 3.6 10H2.4ZM6.88866 5.70913C6.80584 5.89366 6.74784 6.02281 6.70331 6.11647C6.65409 6.21999 6.63936 6.24063 6.64512 6.23257L7.62143 6.93028C7.68512 6.84116 7.74017 6.73035 7.78705 6.63175C7.83862 6.52329 7.90304 6.37966 7.98345 6.20048L6.88866 5.70913ZM6 7.6C6.24415 7.6 6.46312 7.60322 6.63538 7.56854L6.3986 6.39214C6.40013 6.39183 6.38107 6.39565 6.30874 6.39781C6.23775 6.39994 6.1435 6.4 6 6.4V7.6ZM6.64512 6.23257C6.57934 6.32461 6.55126 6.34313 6.54458 6.34745C6.5379 6.35178 6.50951 6.36981 6.3986 6.39214L6.63538 7.56854C6.8225 7.53088 7.01388 7.47313 7.19664 7.35483C7.37941 7.23653 7.51046 7.08558 7.62143 6.93028L6.64512 6.23257ZM18 6.4C17.8565 6.4 17.7623 6.39994 17.6913 6.39781C17.6189 6.39565 17.5999 6.39183 17.6014 6.39214L17.3646 7.56854C17.5369 7.60322 17.7559 7.6 18 7.6V6.4ZM16.0165 6.20048C16.097 6.37966 16.1614 6.52329 16.213 6.63175C16.2598 6.73035 16.3149 6.84116 16.3786 6.93028L17.3549 6.23257C17.3606 6.24063 17.3459 6.21999 17.2967 6.11647C17.2522 6.02281 17.1942 5.89366 17.1113 5.70913L16.0165 6.20048ZM17.6014 6.39214C17.4905 6.36981 17.4621 6.35178 17.4554 6.34745C17.4487 6.34313 17.4207 6.32461 17.3549 6.23257L16.3786 6.93028C16.4895 7.08558 16.6206 7.23653 16.8034 7.35483C16.9861 7.47313 17.1775 7.53088 17.3646 7.56854L17.6014 6.39214Z" fill="currentColor" fill-opacity="0.25" mask="url(#path-1-outside-1_2_408)"/>
<path fill-rule="evenodd" clip-rule="evenodd" d="M12 2.39999C9.72235 2.39999 7.76358 3.75969 6.88866 5.70912C6.80584 5.89365 6.74783 6.0228 6.7033 6.11646C6.66797 6.19078 6.65041 6.22238 6.64544 6.23132L6.64544 6.23132L6.64544 6.23132C6.64349 6.23483 6.64349 6.23484 6.64511 6.23256C6.57933 6.32461 6.55125 6.34312 6.54457 6.34745C6.53789 6.35177 6.5095 6.36981 6.3986 6.39213C6.39867 6.39212 6.39869 6.39211 6.39867 6.39211L6.39857 6.39213C6.39693 6.39239 6.37559 6.3958 6.30874 6.39781C6.23774 6.39993 6.14349 6.39999 5.99999 6.39999C4.01177 6.39999 2.39999 8.01177 2.39999 9.99999C2.39999 11.9882 4.01177 13.6 5.99999 13.6H6.57157L7.77157 12.4H5.99999C4.67451 12.4 3.59999 11.3255 3.59999 9.99999C3.59999 8.67451 4.67451 7.59999 5.99999 7.59999L6.05732 7.60003H6.05733C6.27842 7.60027 6.47671 7.60047 6.63537 7.56854C6.82249 7.53088 7.01387 7.47313 7.19664 7.35482C7.3794 7.23652 7.51045 7.08557 7.62143 6.93028C7.68512 6.84116 7.74016 6.73034 7.78704 6.63174C7.83793 6.52471 7.90133 6.38344 7.98027 6.20756L7.98028 6.20753L7.98345 6.20048C8.67193 4.66645 10.2121 3.59999 12 3.59999C13.7879 3.59999 15.3281 4.66645 16.0165 6.20048L16.0196 6.20731C16.0986 6.38331 16.162 6.52466 16.2129 6.63174C16.2598 6.73034 16.3149 6.84116 16.3786 6.93028C16.4895 7.08557 16.6206 7.23652 16.8034 7.35482C16.9861 7.47313 17.1775 7.53088 17.3646 7.56854C17.5233 7.60047 17.7216 7.60027 17.9427 7.60003H17.9427L18 7.59999C19.3255 7.59999 20.4 8.67451 20.4 9.99999C20.4 11.3255 19.3255 12.4 18 12.4H16.2284L17.4284 13.6H18C19.9882 13.6 21.6 11.9882 21.6 9.99999C21.6 8.01177 19.9882 6.39999 18 6.39999C17.8565 6.39999 17.7622 6.39993 17.6913 6.39781C17.6244 6.3958 17.6031 6.39239 17.6014 6.39213C17.6013 6.39211 17.6013 6.39211 17.6014 6.39213C17.4905 6.36981 17.4621 6.35177 17.4554 6.34745C17.4487 6.34312 17.4207 6.32461 17.3549 6.23256C17.3558 6.23381 17.3562 6.23437 17.356 6.23405C17.3559 6.23378 17.3554 6.23291 17.3545 6.23132C17.3496 6.22239 17.332 6.19079 17.2967 6.11646C17.2522 6.0228 17.1941 5.89365 17.1113 5.70912C16.2364 3.75969 14.2776 2.39999 12 2.39999Z" fill="currentColor"/>
<path d="M12 12L11.5757 11.5757L12 11.1515L12.4243 11.5757L12 12ZM12.6 21C12.6 21.3314 12.3314 21.6 12 21.6C11.6686 21.6 11.4 21.3314 11.4 21L12.6 21ZM7.57574 15.5757L11.5757 11.5757L12.4243 12.4243L8.42426 16.4243L7.57574 15.5757ZM12.4243 11.5757L16.4243 15.5757L15.5757 16.4243L11.5757 12.4243L12.4243 11.5757ZM12.6 12L12.6 21L11.4 21L11.4 12L12.6 12Z" fill="currentColor"/>
</svg>
